<?xml version="1.0" encoding="utf-8"?>
<!-- Generator: Adobe Illustrator 19.1.0, SVG Export Plug-In . SVG Version: 6.00 Build 0)  -->
<svg version="1.1" id="Layer_1" xmlns="http://www.w3.org/2000/svg" xmlns:xlink="http://www.w3.org/1999/xlink" x="0px" y="0px"
	 viewBox="-254 347 101.7 100" style="enable-background:new -254 347 101.7 100;" xml:space="preserve">
<style type="text/css">
	.st0{fill:#FFFFFF;}
	.st1{fill:none;stroke:#231F20;stroke-width:2;stroke-miterlimit:10;}
	.st2{fill:none;stroke:#FFFFFF;stroke-width:2;stroke-miterlimit:10;}
</style>
<rect x="-245.6" y="432.9" class="st0" width="22" height="14.1"/>
<line class="st1" x1="-228.3" y1="439.1" x2="-231.4" y2="439.1"/>
<line class="st2" x1="-196.9" y1="403" x2="-200" y2="403"/>
<rect x="-179.6" y="418.7" class="st0" width="22" height="28.3"/>
<line class="st1" x1="-162.3" y1="425" x2="-165.4" y2="425"/>
<g>
	<path class="st0" d="M-219.5,414.3l0-20.7c0-2.3-1.9-4.1-4.1-4.1c-0.8,0-1.5,0.2-2.2,0.6c-0.2-2.1-2-3.8-4.1-3.8
		c-0.8,0-1.5,0.2-2.2,0.6c-0.2-2.1-2-3.8-4.1-3.8s-3.9,1.7-4.1,3.8c-0.6-0.4-1.4-0.6-2.2-0.6c-2.3,0-4.1,1.9-4.1,4.1v10h-2.2
		c-2.3,0-4.1,1.9-4.1,4.1v9.7l3.2,6.5l4.6,6.2v5h-1.6V447h2v-13.2h20V447h2v-15.1h-1.6v-2L-219.5,414.3z M-243,431.9v-5.6l-4.9-6.5
		l-3-6v-9.2c0-1.2,1-2.2,2.2-2.2h2.2v8.4h2v-20.4c0-1.2,1-2.2,2.2-2.2s2.2,1,2.2,2.2v15.7h2v-15.7v-3.1c0-1.2,1-2.2,2.2-2.2
		c1.2,0,2.2,1,2.2,2.2v3.1v15.7h2v-15.7c0-1.2,1-2.2,2.2-2.2c1.2,0,2.2,1,2.2,2.2v3.1v12.6h2v-12.6c0-1.2,1-2.2,2.2-2.2
		c1.2,0,2.2,1,2.2,2.2v20.3l-4.7,15.6l0,2.4H-243z"/>
</g>
<g>
	<path class="st0" d="M-188.1,378.1l0-20.7c0-2.3-1.9-4.1-4.1-4.1c-0.8,0-1.5,0.2-2.2,0.6c-0.2-2.1-2-3.8-4.1-3.8
		c-0.8,0-1.5,0.2-2.2,0.6c-0.2-2.1-2-3.8-4.1-3.8s-3.9,1.7-4.1,3.8c-0.6-0.4-1.4-0.6-2.2-0.6c-2.3,0-4.1,1.9-4.1,4.1v10h-2.2
		c-2.3,0-4.1,1.9-4.1,4.1v9.7l3.2,6.5l4.6,6.2v5h-1.6V447h2v-49.3h20V447h2v-51.3h-1.6v-2L-188.1,378.1z M-211.6,395.7v-5.6
		l-4.9-6.5l-3-6v-9.2c0-1.2,1-2.2,2.2-2.2h2.2v8.4h2v-20.4c0-1.2,1-2.2,2.2-2.2c1.2,0,2.2,1,2.2,2.2V370h2v-15.7v-3.1
		c0-1.2,1-2.2,2.2-2.2s2.2,1,2.2,2.2v3.1V370h2v-15.7c0-1.2,1-2.2,2.2-2.2c1.2,0,2.2,1,2.2,2.2v3.1V370h2v-12.6c0-1.2,1-2.2,2.2-2.2
		c1.2,0,2.2,1,2.2,2.2v20.3l-4.7,15.6l0,2.4H-211.6z"/>
</g>
<g>
	<path class="st0" d="M-153.5,400.1l0-20.7c0-2.3-1.9-4.1-4.1-4.1c-0.8,0-1.5,0.2-2.2,0.6c-0.2-2.1-2-3.8-4.1-3.8
		c-0.8,0-1.5,0.2-2.2,0.6c-0.2-2.1-2-3.8-4.1-3.8s-3.9,1.7-4.1,3.8c-0.6-0.4-1.4-0.6-2.2-0.6c-2.3,0-4.1,1.9-4.1,4.1v10h-2.2
		c-2.3,0-4.1,1.9-4.1,4.1v9.7l3.2,6.5l4.6,6.2v5h-1.6V447h2v-27.3h20V447h2v-29.3h-1.6v-2L-153.5,400.1z M-177,417.7v-5.6l-4.9-6.5
		l-3-6v-9.2c0-1.2,1-2.2,2.2-2.2h2.2v8.4h2v-20.4c0-1.2,1-2.2,2.2-2.2s2.2,1,2.2,2.2V392h2v-15.7v-3.1c0-1.2,1-2.2,2.2-2.2
		s2.2,1,2.2,2.2v3.1V392h2v-15.7c0-1.2,1-2.2,2.2-2.2c1.2,0,2.2,1,2.2,2.2v3.1V392h2v-12.6c0-1.2,1-2.2,2.2-2.2s2.2,1,2.2,2.2v20.3
		l-4.7,15.6l0,2.4H-177z"/>
</g>
</svg>
