<?xml version="1.0" encoding="utf-8"?>
<!-- Generator: Adobe Illustrator 19.1.0, SVG Export Plug-In . SVG Version: 6.00 Build 0)  -->
<svg version="1.1" id="Layer_1" xmlns="http://www.w3.org/2000/svg" xmlns:xlink="http://www.w3.org/1999/xlink" x="0px" y="0px"
	 viewBox="-262 346.5 87 100.5" style="enable-background:new -262 346.5 87 100.5;" xml:space="preserve">
<style type="text/css">
	.st0{fill:none;}
	.st1{fill:none;stroke:#FFFFFF;stroke-width:2;stroke-linejoin:round;stroke-miterlimit:10;}
	.st2{fill:#FFFFFF;stroke:#FFFFFF;stroke-width:2;stroke-linejoin:round;stroke-miterlimit:10;}
</style>
<rect x="-260.9" y="346.5" class="st0" width="84.8" height="100.5"/>
<line class="st1" x1="-260.9" y1="447" x2="-260.9" y2="346.5"/>
<line class="st1" x1="-248.4" y1="447" x2="-248.4" y2="346.5"/>
<line class="st1" x1="-188.7" y1="447" x2="-188.7" y2="346.5"/>
<line class="st1" x1="-176.2" y1="346.5" x2="-176.2" y2="447"/>
<line class="st1" x1="-260.9" y1="439.1" x2="-248.4" y2="439.1"/>
<line class="st1" x1="-260.9" y1="429.7" x2="-248.4" y2="429.7"/>
<line class="st1" x1="-260.9" y1="420.3" x2="-248.4" y2="420.3"/>
<line class="st1" x1="-260.9" y1="410.9" x2="-248.4" y2="410.9"/>
<line class="st1" x1="-260.9" y1="401.5" x2="-248.4" y2="401.5"/>
<line class="st1" x1="-260.9" y1="392.1" x2="-248.4" y2="392.1"/>
<line class="st1" x1="-260.9" y1="382.6" x2="-248.4" y2="382.6"/>
<line class="st1" x1="-260.9" y1="373.2" x2="-248.4" y2="373.2"/>
<line class="st1" x1="-260.9" y1="363.8" x2="-248.4" y2="363.8"/>
<line class="st1" x1="-260.9" y1="354.4" x2="-248.4" y2="354.4"/>
<line class="st1" x1="-188.7" y1="439.1" x2="-176.2" y2="439.1"/>
<line class="st1" x1="-188.7" y1="429.7" x2="-176.2" y2="429.7"/>
<line class="st1" x1="-188.7" y1="420.3" x2="-176.2" y2="420.3"/>
<line class="st1" x1="-188.7" y1="410.9" x2="-176.2" y2="410.9"/>
<line class="st1" x1="-188.7" y1="401.5" x2="-176.2" y2="401.5"/>
<line class="st1" x1="-188.7" y1="392.1" x2="-176.2" y2="392.1"/>
<line class="st1" x1="-188.7" y1="382.6" x2="-176.2" y2="382.6"/>
<line class="st1" x1="-188.7" y1="373.2" x2="-176.2" y2="373.2"/>
<line class="st1" x1="-188.7" y1="363.8" x2="-176.2" y2="363.8"/>
<line class="st1" x1="-188.7" y1="354.4" x2="-176.2" y2="354.4"/>
<line class="st1" x1="-248.4" y1="379.5" x2="-188.7" y2="379.5"/>
<line class="st1" x1="-248.4" y1="414" x2="-188.7" y2="414"/>
<polyline class="st2" points="-193.5,346.5 -193.5,374.8 -243.7,374.8 -243.7,346.5 "/>
<polyline class="st2" points="-243.7,447 -243.7,418.7 -193.5,418.7 -193.5,447 "/>
<polygon class="st2" points="-224.8,404.6 -224.8,388.9 -209.1,396.8 "/>
<line class="st1" x1="-243.7" y1="385.8" x2="-240.5" y2="385.8"/>
<line class="st1" x1="-243.7" y1="407.7" x2="-240.5" y2="407.7"/>
<line class="st1" x1="-196.6" y1="407.7" x2="-193.5" y2="407.7"/>
<line class="st1" x1="-196.6" y1="385.8" x2="-193.5" y2="385.8"/>
</svg>
