<?xml version="1.0" encoding="utf-8"?>
<!-- Generator: Adobe Illustrator 19.1.0, SVG Export Plug-In . SVG Version: 6.00 Build 0)  -->
<svg version="1.1" id="Layer_1" xmlns="http://www.w3.org/2000/svg" xmlns:xlink="http://www.w3.org/1999/xlink" x="0px" y="0px"
	 viewBox="-250 343.8 109.5 106.2" style="enable-background:new -250 343.8 109.5 106.2;" xml:space="preserve">
<style type="text/css">
	.st0{fill:#FFFFFF;stroke:#FFFFFF;stroke-width:2;stroke-miterlimit:10;}
	.st1{fill:none;stroke:#FFFFFF;stroke-width:2;stroke-miterlimit:10;}
	.st2{fill:#FFFFFF;}
</style>
<polygon class="st0" points="-149.1,448.1 -242.1,448.1 -249,441.2 -249,437.7 -207.7,437.7 -204.2,441.2 -187,441.2 -183.6,437.7 
	-142.3,437.7 -142.3,441.2 "/>
<path class="st0" d="M-157.8,378.2h-75.7c-2.9,0-5.2,2.3-5.2,5.2v49.9h86.1v-49.9C-152.6,380.5-154.9,378.2-157.8,378.2z
	 M-157.8,430.6h-75.7v-48.2h75.7V430.6z"/>
<line class="st1" x1="-204.2" y1="426.4" x2="-200.8" y2="426.4"/>
<line class="st1" x1="-211.1" y1="426.4" x2="-207.7" y2="426.4"/>
<line class="st1" x1="-197.3" y1="426.4" x2="-193.9" y2="426.4"/>
<line class="st1" x1="-190.5" y1="426.4" x2="-187" y2="426.4"/>
<line class="st1" x1="-183.6" y1="426.4" x2="-180.1" y2="426.4"/>
<polyline class="st1" points="-195.6,422.2 -195.6,365.4 -162.9,365.4 "/>
<polyline class="st1" points="-202.5,351 -202.5,345.8 -164.6,345.8 "/>
<line class="st1" x1="-202.5" y1="422.2" x2="-202.5" y2="360.3"/>
<polyline class="st1" points="-181.9,422.2 -181.9,399.9 -173.2,399.9 "/>
<polyline class="st1" points="-188.7,361.1 -188.7,355.9 -226.6,355.9 "/>
<line class="st1" x1="-188.7" y1="422.2" x2="-188.7" y2="370.6"/>
<polyline class="st1" points="-209.4,422.2 -209.4,393 -230.1,393 "/>
<circle class="st2" cx="-157.8" cy="365.4" r="6.9"/>
<line class="st1" x1="-240.4" y1="355.9" x2="-236.9" y2="355.9"/>
<line class="st1" x1="-233.5" y1="355.9" x2="-230.1" y2="355.9"/>
<line class="st1" x1="-161.2" y1="345.8" x2="-157.8" y2="345.8"/>
<line class="st1" x1="-154.3" y1="345.8" x2="-150.9" y2="345.8"/>
</svg>
