<?xml version="1.0" encoding="utf-8"?>
<!-- Generator: Adobe Illustrator 19.1.0, SVG Export Plug-In . SVG Version: 6.00 Build 0)  -->
<svg version="1.1" id="Layer_1" xmlns="http://www.w3.org/2000/svg" xmlns:xlink="http://www.w3.org/1999/xlink" x="0px" y="0px"
	 viewBox="-254 345.5 102.2 102.5" style="enable-background:new -254 345.5 102.2 102.5;" xml:space="preserve">
<style type="text/css">
	.st0{fill:#FFFFFF;}
	.st1{fill:none;}
	.st2{fill:#231F20;}
</style>
<circle class="st0" cx="-202.9" cy="396.8" r="49.8"/>
<g>
	<path class="st1" d="M-191.3,389.9l4.8-3c-3.2-5.3-8.9-8.9-15.4-9.3v12.9c0,0.6-0.4,1-1,1s-1-0.4-1-1v-12.9
		c-6.5,0.3-12.2,4-15.4,9.3l16.4,10.2L-191.3,389.9z"/>
	<path class="st1" d="M-220.3,388.6c-1.2,2.5-1.8,5.2-1.8,8.1c0,3.2,0.8,6.3,2.2,8.9l10.3-5.1c0.5-0.2,1.1,0,1.3,0.5
		c0.2,0.5,0,1.1-0.5,1.3l-10.2,5.1c3.3,4.9,8.7,8.2,15,8.5v-17.1L-220.3,388.6z"/>
	<path class="st1" d="M-197.6,401c0.2-0.5,0.8-0.7,1.3-0.5l10.3,5.1c1.4-2.7,2.2-5.7,2.2-8.9c0-2.9-0.7-5.7-1.8-8.1l-1.1,0.7
		l-15.3,9.5v17.1c6.2-0.3,11.7-3.6,15-8.5l-10.2-5.1C-197.6,402.1-197.8,401.5-197.6,401z"/>
	<path class="st2" d="M-164.5,416.8c0-0.1,0-0.1,0-0.2c0,0,0,0,0,0l-4.7-12.4c-0.2-0.5-0.8-0.8-1.3-0.6c-0.5,0.2-0.8,0.8-0.6,1.3
		l3.8,10l-16.8-8.3c1.5-2.9,2.4-6.3,2.4-9.8c0-3.3-0.8-6.4-2.1-9.2l4.8-3v20c0,0.6,0.4,1,1,1s1-0.4,1-1v-21.8c0,0,0,0,0,0
		c0-0.1,0-0.2,0-0.2c0,0,0-0.1,0-0.1c0-0.1,0-0.1-0.1-0.2c0,0,0-0.1-0.1-0.1c0,0-0.1-0.1-0.1-0.1c0,0-0.1,0-0.1-0.1
		c0,0-0.1-0.1-0.1-0.1l-20.2-12.7c-0.5-0.3-1.1-0.2-1.4,0.3c-0.3,0.5-0.2,1.1,0.3,1.4l18.8,11.8l-4.9,3c-3.6-5.9-9.9-9.9-17.1-10.2
		v-17.2l9.3,7.9c0.2,0.2,0.4,0.2,0.6,0.2c0.3,0,0.6-0.1,0.8-0.4c0.4-0.4,0.3-1.1-0.1-1.4l-10.9-9.3c0,0-0.1-0.1-0.2-0.1
		c0,0-0.1-0.1-0.1-0.1c-0.2-0.1-0.5-0.1-0.7,0c0,0-0.1,0-0.1,0.1c-0.1,0-0.1,0.1-0.2,0.1l-10.9,9.3c-0.4,0.4-0.5,1-0.1,1.4
		c0.4,0.4,1,0.5,1.4,0.1l9.3-7.9v17.2c-7.3,0.3-13.6,4.3-17.1,10.2l-4.9-3l18.8-11.8c0.5-0.3,0.6-0.9,0.3-1.4
		c-0.3-0.5-0.9-0.6-1.4-0.3l-20.2,12.7c0,0-0.1,0.1-0.1,0.1c0,0-0.1,0-0.1,0.1c0,0-0.1,0.1-0.1,0.1c0,0,0,0.1-0.1,0.1
		c0,0,0,0.1-0.1,0.2c0,0,0,0.1,0,0.1c0,0.1,0,0.1,0,0.2c0,0,0,0,0,0v21.8c0,0.6,0.4,1,1,1s1-0.4,1-1v-20l4.7,2.9l0.1,0.1
		c-1.3,2.8-2.1,5.9-2.1,9.2c0,3.5,0.9,6.9,2.4,9.8l-16.8,8.3l3.8-10c0.2-0.5-0.1-1.1-0.6-1.3c-0.5-0.2-1.1,0.1-1.3,0.6l-4.7,12.4
		c0,0,0,0,0,0c0,0.1,0,0.1,0,0.2c0,0.1,0,0.1,0,0.2c0,0.1,0,0.1,0,0.2c0,0.1,0,0.1,0,0.2c0,0,0,0,0,0c0,0,0,0,0,0
		c0.1,0.1,0.1,0.2,0.2,0.3c0,0,0,0,0.1,0.1c0.1,0.1,0.2,0.1,0.2,0.1c0,0,0,0,0,0l12.5,4.7c0.1,0,0.2,0.1,0.4,0.1
		c0.4,0,0.8-0.2,0.9-0.6c0.2-0.5-0.1-1.1-0.6-1.3l-10.3-3.9l17.1-8.5c3.6,5.5,9.7,9.3,16.8,9.6v6.6l-18.7-11.7
		c-0.5-0.3-1.1-0.2-1.4,0.3c-0.3,0.5-0.2,1.1,0.3,1.4l20.2,12.7c0,0,0,0,0,0c0,0,0,0,0,0c0,0,0.1,0,0.1,0.1c0,0,0.1,0,0.1,0
		c0.1,0,0.2,0,0.3,0s0.2,0,0.3,0c0,0,0.1,0,0.1,0c0,0,0.1,0,0.1-0.1c0,0,0,0,0,0c0,0,0,0,0,0l20.2-12.7c0.5-0.3,0.6-0.9,0.3-1.4
		c-0.3-0.5-0.9-0.6-1.4-0.3l-18.7,11.7v-6.6c7-0.3,13.1-4.1,16.7-9.6l17.1,8.5l-10.3,3.9c-0.5,0.2-0.8,0.8-0.6,1.3
		c0.2,0.4,0.5,0.6,0.9,0.6c0.1,0,0.2,0,0.4-0.1l12.5-4.7c0,0,0,0,0,0c0.1,0,0.2-0.1,0.2-0.1c0,0,0,0,0.1-0.1
		c0.1-0.1,0.1-0.2,0.2-0.3c0,0,0,0,0,0c0,0,0,0,0,0c0-0.1,0-0.1,0-0.2c0-0.1,0-0.1,0-0.2C-164.5,416.9-164.5,416.9-164.5,416.8z
		 M-203.9,377.6v12.9c0,0.6,0.4,1,1,1s1-0.4,1-1v-12.9c6.5,0.3,12.2,4,15.4,9.3l-4.8,3l-11.6,7.2l-16.4-10.2
		C-216.1,381.6-210.4,377.9-203.9,377.6z M-218.9,407.4l10.2-5.1c0.5-0.2,0.7-0.8,0.5-1.3c-0.2-0.5-0.8-0.7-1.3-0.5l-10.3,5.1
		c-1.4-2.7-2.2-5.7-2.2-8.9c0-2.9,0.7-5.7,1.8-8.1l16.4,10.2v17.1C-210.1,415.6-215.6,412.3-218.9,407.4z M-201.9,415.9v-17.1
		l15.3-9.5l1.1-0.7c1.2,2.5,1.8,5.2,1.8,8.1c0,3.2-0.8,6.3-2.2,8.9l-10.3-5.1c-0.5-0.2-1.1,0-1.3,0.5c-0.2,0.5,0,1.1,0.5,1.3
		l10.2,5.1C-190.2,412.3-195.7,415.6-201.9,415.9z"/>
</g>
</svg>
