<?xml version="1.0" encoding="utf-8"?>
<!-- Generator: Adobe Illustrator 19.1.0, SVG Export Plug-In . SVG Version: 6.00 Build 0)  -->
<svg version="1.1" id="Layer_1" xmlns="http://www.w3.org/2000/svg" xmlns:xlink="http://www.w3.org/1999/xlink" x="0px" y="0px"
	 viewBox="-222 351.5 166.2 91.5" style="enable-background:new -222 351.5 166.2 91.5;" xml:space="preserve">
<style type="text/css">
	.st0{fill:#FFFFFF;}
	.st1{fill:none;stroke:#FFFFFF;stroke-width:2;stroke-miterlimit:10;}
	.st2{fill:none;}
</style>
<rect x="-138.8" y="427.5" class="st0" width="14.3" height="14.3"/>
<line class="st1" x1="-124.6" y1="427.5" x2="-124.6" y2="441.7"/>
<line class="st1" x1="-138.8" y1="441.7" x2="-138.8" y2="427.5"/>
<line class="st1" x1="-144.2" y1="441.7" x2="-119.2" y2="441.7"/>
<line class="st1" x1="-181.6" y1="413.2" x2="-81.8" y2="413.2"/>
<line class="st1" x1="-133.5" y1="420.3" x2="-129.9" y2="420.3"/>
<path class="st2" d="M-81.8,358c0-3-2.4-5.3-5.3-5.3h-89.1c-3,0-5.3,2.4-5.3,5.3v64.2c0,3,2.4,5.3,5.3,5.3h89.1c3,0,5.3-2.4,5.3-5.3
	V358z"/>
<path class="st1" d="M-81.8,358c0-3-2.4-5.3-5.3-5.3h-89.1c-3,0-5.3,2.4-5.3,5.3v64.2c0,3,2.4,5.3,5.3,5.3h89.1c3,0,5.3-2.4,5.3-5.3
	V358z"/>
<rect x="-176.3" y="358" class="st1" width="89.1" height="49.9"/>
<rect x="-172.8" y="361.5" class="st0" width="17.8" height="10.7"/>
<rect x="-172.8" y="375.8" class="st0" width="17.8" height="28.5"/>
<rect x="-151.3" y="361.5" class="st0" width="17.8" height="10.7"/>
<rect x="-151.3" y="375.8" class="st0" width="17.8" height="28.5"/>
<rect x="-129.9" y="361.5" class="st0" width="17.8" height="10.7"/>
<rect x="-129.9" y="375.8" class="st0" width="17.8" height="28.5"/>
<rect x="-108.5" y="361.5" class="st0" width="17.8" height="10.7"/>
<rect x="-108.5" y="375.8" class="st0" width="17.8" height="28.5"/>
<path class="st1" d="M-56.9,438.2c0,2-1.6,3.6-3.6,3.6h-17.8c-2,0-3.6-1.6-3.6-3.6v-35.6c0-2,1.6-3.6,3.6-3.6h17.8
	c2,0,3.6,1.6,3.6,3.6V438.2z"/>
<rect x="-76.5" y="404.3" class="st0" width="14.3" height="10.7"/>
<rect x="-76.5" y="418.6" class="st0" width="14.3" height="3.6"/>
<rect x="-76.5" y="425.7" class="st0" width="14.3" height="3.6"/>
<line class="st1" x1="-67.6" y1="434.6" x2="-71.1" y2="434.6"/>
<line class="st1" x1="-197.6" y1="434.6" x2="-204.7" y2="434.6"/>
<rect x="-215.4" y="390" class="st0" width="10.7" height="7.1"/>
<rect x="-215.4" y="400.7" class="st0" width="10.7" height="28.5"/>
<rect x="-201.1" y="390" class="st0" width="14.3" height="7.1"/>
<rect x="-201.1" y="400.7" class="st0" width="14.3" height="28.5"/>
<path class="st1" d="M-181.5,438.2c0,2-1.6,3.6-3.6,3.6h-32.1c-2,0-3.6-1.6-3.6-3.6v-49.9c0-2,1.6-3.6,3.6-3.6h32.1
	c2,0,3.6,1.6,3.6,3.6V438.2z"/>
</svg>
