<?xml version="1.0" encoding="utf-8"?>
<!-- Generator: Adobe Illustrator 19.1.0, SVG Export Plug-In . SVG Version: 6.00 Build 0)  -->
<svg version="1.1" id="Layer_1" xmlns="http://www.w3.org/2000/svg" xmlns:xlink="http://www.w3.org/1999/xlink" x="0px" y="0px"
	 viewBox="-257 349 96.3 95" style="enable-background:new -257 349 96.3 95;" xml:space="preserve">
<style type="text/css">
	.st0{fill:none;stroke:#FFFFFF;stroke-width:2;stroke-linejoin:round;stroke-miterlimit:10;}
	.st1{fill:#FFFFFF;stroke:#FFFFFF;stroke-width:2;stroke-miterlimit:10;}
	.st2{fill:none;stroke:#231F20;stroke-width:2;stroke-miterlimit:10;}
	.st3{fill:#FFFFFF;stroke:#FFFFFF;stroke-width:2;stroke-linejoin:round;stroke-miterlimit:10;}
	.st4{fill:none;stroke:#231F20;stroke-width:2;stroke-linejoin:round;stroke-miterlimit:10;}
</style>
<polyline class="st0" points="-221.3,388.7 -233.2,388.7 -233.2,400.7 -245.1,388.7 -254,388.7 -254,350 -197.4,350 -197.4,388.7 
	-201.9,388.7 "/>
<rect x="-254" y="406.6" class="st1" width="22.3" height="35.7"/>
<line class="st2" x1="-237.6" y1="434.9" x2="-237.6" y2="437.9"/>
<polyline class="st0" points="-193,361.9 -161.7,361.9 -161.7,397.7 -170.6,397.7 -182.5,409.6 -182.5,397.7 -201.9,397.7 "/>
<line class="st0" x1="-169.1" y1="370.9" x2="-193" y2="370.9"/>
<line class="st0" x1="-169.1" y1="379.8" x2="-193" y2="379.8"/>
<line class="st0" x1="-169.1" y1="388.7" x2="-193" y2="388.7"/>
<path class="st3" d="M-210.8,382.8c1.3,0,2.5,0.6,3.3,1.5h5.6v-29.8h-47.7v29.8h35.4C-213.3,383.4-212.1,382.8-210.8,382.8z"/>
<path class="st0" d="M-231.7,439.4h4.5l6,3h25.3c2.5,0,4.5-2,4.5-4.5s-2-4.5-4.5-4.5h1.5c2.5,0,4.5-2,4.5-4.5s-2-4.5-4.5-4.5h3
	c2.5,0,4.5-2,4.5-4.5s-2-4.5-4.5-4.5h-1.5c2.5,0,4.5-2,4.5-4.5s-2-4.5-4.5-4.5h-19.4l6-14.9V387c0-2.5-2-4.5-4.5-4.5s-4.5,2-4.5,4.5
	l-4.5,8.9l-8.9,10.4h-3V439.4z"/>
<g>
	<line class="st4" x1="-233.2" y1="369.4" x2="-230.2" y2="369.4"/>
	<line class="st4" x1="-227.2" y1="369.4" x2="-224.2" y2="369.4"/>
	<line class="st4" x1="-221.3" y1="369.4" x2="-218.3" y2="369.4"/>
</g>
</svg>
